# xmcd CD database file
#
# Track frame offsets:
#	150
#	8422
#	21500
#	35270
#	45797
#	60422
#	76135
#	93070
#	103517
#	113230
#	128485
#	137712
#	149137
#	164970
#	178457
#
# Disc length: 2746 seconds
#
# Revision: 0
# Processed by: cddbd v1.4PL0 Copyright (c) Steve Scherf et al.
# Submitted via: CDex 1.50beta9
#
DISCID=c00ab80f
DTITLE=Sean Wilson - Forever And Ever
DYEAR=1900
DGENRE=Country
TTITLE0=The Old Folks At Home
TTITLE1=Where The River Shannon Flows
TTITLE2=Do What You Do Do Well
TTITLE3=My Own Peculiar Way
TTITLE4=The Roads Of Kildare
TTITLE5=Light In The Window
TTITLE6=The Sad Emigrant
TTITLE7=Your Mother's Eyes
TTITLE8=The Village Of Dromore
TTITLE9=Sunday Morning Christian
TTITLE10=My Lagan She Flows Softly
TTITLE11=If I Could Only Start Over
TTITLE12=The Deepening Snow
TTITLE13=Forever And Ever
TTITLE14=It Takes People Like You
EXTD=
EXTT0=
EXTT1=
EXTT2=
EXTT3=
EXTT4=
EXTT5=
EXTT6=
EXTT7=
EXTT8=
EXTT9=
EXTT10=
EXTT11=
EXTT12=
EXTT13=
EXTT14=
PLAYORDER=
